# xmcd
#
# Track frame offsets:
#	182
#	12885
#	26647
#	39777
#	54310
#	67842
#	81690
#	95200
#	107335
#	120480
#	132927
#	143865
#	156442
#	167670
#	184302
#	202590
#	214847
#	227082
#	238565
#	248742
#	258675
#	276047
#
# Disc length: 3811 seconds
#
# Revision: 10
# Processed by: cddbd v1.4PL0 Copyright (c) Steve Scherf et al.
# Submitted via: dBpowerAMP V4.0
#
DISCID=2e0ee116
DTITLE=John Lee Hooker - House Rent Boogie
DYEAR=1987
DGENRE=Blues
TTITLE0=Mambo Chillun
TTITLE1=Time is Marching
TTITLE2=Unfriendly Woman
TTITLE3=I'm so Worried Baby
TTITLE4=Baby Lee
TTITLE5=The Road is so Rough
TTITLE6=Trouble Blues
TTITLE7=Everybody Rockin'
TTITLE8=I'm so Excited
TTITLE9=Crawlin' Black Spider
TTITLE10=Little Fine Woman
TTITLE11=Rosie Mae
TTITLE12=You've Taken my Woman
TTITLE13=Mama You've Got a Daughter
TTITLE14=House Rent Boogie
TTITLE15=I'm a Stranger
TTITLE16=I'm Mad Again
TTITLE17=Hard Hearted Woman
TTITLE18=I Wanna Walk
TTITLE19=Run On
TTITLE20=Blues Before Sunrise
TTITLE21=Onions
EXTD=Charly R&B Release
EXTT0=
EXTT1=
EXTT2=
EXTT3=
EXTT4=
EXTT5=
EXTT6=
EXTT7=
EXTT8=
EXTT9=
EXTT10=
EXTT11=
EXTT12=
EXTT13=
EXTT14=
EXTT15=
EXTT16=
EXTT17=
EXTT18=
EXTT19=
EXTT20=
EXTT21=
PLAYORDER=
